HIERARCHY
ROOT Hips
{
  OFFSET 267.745 86.9975 -272.335
  CHANNELS 6 Xposition Yposition Zposition Zrotation Xrotation Yrotation
  JOINT LeftUpLeg
  {
    OFFSET 8.64259 1.95398 -2.38835
    CHANNELS 3 Zrotation Xrotation Yrotation
    JOINT LeftLeg
    {
      OFFSET 43.7702 0 0
      CHANNELS 3 Zrotation Xrotation Yrotation
      JOINT LeftFoot
      {
        OFFSET 40.6238 0 0
        CHANNELS 3 Zrotation Xrotation Yrotation
        JOINT LeftToeBase
        {
          OFFSET 12.7242 0 0
          CHANNELS 3 Zrotation Xrotation Yrotation
          End Site
          {
            OFFSET 0 0 0
          }
        }
      }
    }
  }
  JOINT RightUpLeg
  {
    OFFSET -8.2249 1.95398 -2.59336
    CHANNELS 3 Zrotation Xrotation Yrotation
    JOINT RightLeg
    {
      OFFSET 43.5653 0 0
      CHANNELS 3 Zrotation Xrotation Yrotation
      JOINT RightFoot
      {
        OFFSET 40.6238 0 0
        CHANNELS 3 Zrotation Xrotation Yrotation
        JOINT RightToeBase
        {
          OFFSET 12.7242 0 0
          CHANNELS 3 Zrotation Xrotation Yrotation
          End Site
          {
            OFFSET 0 0 0
          }
        }
      }
    }
  }
  JOINT Spine
  {
    OFFSET 0.165834 0.87714 6.61349
    CHANNELS 3 Zrotation Xrotation Yrotation
    JOINT Spine1
    {
      OFFSET 7.38963 1.71661e-005 0
      CHANNELS 3 Zrotation Xrotation Yrotation
      JOINT Spine2
      {
        OFFSET 11.9445 1.14441e-005 0
        CHANNELS 3 Zrotation Xrotation Yrotation
        JOINT Spine3
        {
          OFFSET 14.7254 4.19617e-005 0
          CHANNELS 3 Zrotation Xrotation Yrotation
          JOINT Spine4
          {
            OFFSET 10.9679 0 0
            CHANNELS 3 Zrotation Xrotation Yrotation
            JOINT RightShoulder
            {
              OFFSET 2.46616 -1.6653 3.69651
              CHANNELS 3 Zrotation Xrotation Yrotation
              JOINT RightArm
              {
                OFFSET 13.0012 0 0
                CHANNELS 3 Zrotation Xrotation Yrotation
                JOINT RightForeArm
                {
                  OFFSET 28.7848 1.52588e-005 0
                  CHANNELS 3 Zrotation Xrotation Yrotation
                  JOINT RightHand
                  {
                    OFFSET 26.5688 1.52588e-005 0
                    CHANNELS 3 Zrotation Xrotation Yrotation
                    End Site
                    {
                      OFFSET 0 0 0
                    }
                  }
                }
              }
            }
            JOINT LeftShoulder
            {
              OFFSET 2.38034 -1.29275 -3.7523
              CHANNELS 3 Zrotation Xrotation Yrotation
              JOINT LeftArm
              {
                OFFSET 16.3182 6.10352e-005 0
                CHANNELS 3 Zrotation Xrotation Yrotation
                JOINT LeftForeArm
                {
                  OFFSET 27.0901 0 0
                  CHANNELS 3 Zrotation Xrotation Yrotation
                  JOINT LeftHand
                  {
                    OFFSET 24.5451 1.52588e-005 0
                    CHANNELS 3 Zrotation Xrotation Yrotation
                    End Site
                    {
                      OFFSET 0 0 0
                    }
                  }
                }
              }
            }
            JOINT Neck
            {
              OFFSET 5.0226 -0.0266342 0
              CHANNELS 3 Zrotation Xrotation Yrotation
              JOINT Head
              {
                OFFSET 6.69364 2.86102e-005 0
                CHANNELS 3 Zrotation Xrotation Yrotation
                End Site
                {
                  OFFSET 0 0 0
                }
              }
            }
          }
        }
      }
    }
  }
}
MOTION
Frames:	6
Frame Time:	0.0416667
-146.667 87.149 149.686 -77.0833 -37.1011 92.8849 7.91939 8.81842 -82.7087 -47.3719 3.0099 -15.1584 45.1945 -8.00416 -1.35559 63.3713 -2.59729 6.78462 -14.1319 -15.056 -86.6663 -29.0807 1.67392 4.68001 59.4191 8.16223 14.7915 20.9507 1.82547 0.836328 1.57966 -12.0671 -88.5512 51.031 3.67581 0.815157 39.3651 3.70813 0.65237 16.7974 3.26076 1.88321 36.8101 3.26078 1.88321 102.466 -52.9554 -81.7179 28.3268 0.801142 -0.750727 -0.628366 -17.5285 -12.3151 -9.10553 -0.510844 1.41795 -83.4382 -49.3277 88.3008 -33.2938 1.29892 -26.1815 -2.45426 45.2677 -0.00521735 -2.49567 -0.085228 -9.29284 9.11145 1.04869 -5.13183 -20.0242 0.571075 11.2583 
-140.064 88.8386 144.174 -78.0077 -33.575 93.9217 7.33334 -2.25378 -81.358 -53.0063 0.699873 -18.6421 51.7758 -2.69705 8.19233 57.1251 -2.43598 5.57398 -16.2572 -8.43107 -86.0651 -27.0374 1.70609 2.48868 63.3342 6.76549 16.0453 21.5575 1.69449 0.725839 1.30465 -12.0282 -87.6192 50.8999 3.96574 2.82623 39.2324 4.08626 2.64886 16.6917 2.93355 3.88702 36.7043 2.93354 3.88701 102.381 -52.5204 -81.8416 27.7107 -2.00615 -5.99195 -0.74532 -16.8163 -14.6864 -12.4376 -0.718034 1.55657 -83.8196 -50.6888 87.8645 -34.053 -1.54002 -23.1874 -1.51898 50.4549 -0.00356008 -1.72945 -0.115304 -8.82797 7.93611 0.365277 -4.00313 -18.7935 -0.00194942 9.23804 
-134.177 90.049 138.829 -79.6482 -29.7431 94.0204 15.3432 -7.34944 -79.6295 -39.6848 -10.4676 -24.6642 55.5316 -0.172824 13.6316 55.4895 -2.20823 6.61043 -19.3125 -1.59684 -85.848 -22.1968 3.19477 1.68276 65.4734 5.80546 18.0895 21.3507 1.6949 1.02023 1.01528 -12.0463 -86.8635 50.8882 4.08852 4.52485 39.2163 4.28351 4.34075 16.721 2.54206 5.54204 36.7337 2.54206 5.54203 101.398 -52.6117 -83.331 25.9171 -4.91414 -10.2432 -1.65225 -14.0169 -19.8472 -12.3805 -0.701958 1.3644 -83.5178 -51.2718 88.3753 -33.0831 -3.65097 -16.5339 -1.42244 47.1204 -0.0020229 -3.59993 -0.0566453 -7.98375 7.51817 0.339404 -3.72665 -19.0012 0.00796898 8.27463 
-128.299 89.8412 133.445 -80.2837 -28.4824 93.1056 31.5867 -3.43145 -75.9934 -15.9521 -31.6054 -22.1291 55.7902 -3.47474 15.2013 48.7481 -1.94954 4.31599 -19.2028 3.15866 -85.2845 -21.5153 4.12862 1.04286 67.9359 4.54879 19.7688 24.4703 0.826238 1.79749 1.13977 -11.9902 -86.5812 50.7592 4.50985 4.90125 39.0876 4.72097 4.69829 16.5972 2.83141 6.02697 36.6099 2.83139 6.02696 100.997 -51.2417 -83.9633 24.7373 -6.28958 -15.9749 -2.47022 -13.3505 -22.4221 -10.7466 -0.459329 -0.204332 -83.8121 -52.9595 88.1122 -31.7495 -5.13984 -11.4963 -1.56072 45.4608 -0.000748523 -2.29572 -0.0963578 -7.89038 6.66239 0.358476 -2.28963 -17.0978 -0.0772665 7.70926 
-121.852 88.7674 127.285 -80.1046 -26.9739 92.0693 44.1861 -4.70125 -78.6407 -1.82373 -44.1647 0.518098 58.8435 -12.1394 10.9589 41.4186 -1.44489 5.71856 -18.6283 6.8483 -84.7576 -24.87 0.826061 1.39462 66.9706 4.04931 19.1064 35.3681 -1.79237 5.60791 1.22333 -11.902 -86.3168 50.5667 4.84942 5.2939 38.8949 5.0774 5.0757 16.4123 3.03802 6.50271 36.425 3.03804 6.50271 100.031 -50.9086 -85.4621 24.0127 -6.42083 -17.5178 -3.33588 -12.0311 -25.6592 -10.7589 -0.377741 -1.14369 -83.5077 -53.4985 88.6089 -31.562 -7.46574 -9.77916 -0.504415 47.633 0.000235604 -3.47236 -0.0452951 -9.08078 6.29905 0.530237 -2.87245 -16.5811 0.173106 8.24617 
-114.851 87.8889 120.286 -80.5578 -26.3545 92.461 37.1313 -7.73423 -79.2481 -10.5813 -34.8579 -6.93566 56.4562 -12.6641 11.6292 38.0265 -1.10442 2.23232 -19.8855 10.1042 -86.1767 -27.7079 -1.36263 2.09758 59.3783 6.38443 22.174 46.5375 -3.76476 7.98822 0.798408 -12.0527 -86.2195 50.8481 4.24321 5.9436 39.1713 4.50025 5.75172 16.7254 2.26578 6.9396 36.7381 2.26577 6.9396 100.98 -51.8232 -83.9775 24.5078 -7.82467 -15.2619 -4.71552 -13.7019 -27.0601 -10.1905 -0.366939 -1.0402 -82.7791 -51.8827 89.5335 -32.1437 -8.75137 -9.3424 0.34588 49.5611 0.000841414 -4.47646 -0.0244928 -7.92319 7.29049 0.127563 -5.27407 -18.0685 0.164996 8.38255 
